<svg xmlns="http://www.w3.org/2000/svg" width="34" height="34" viewBox="0 0 34 34">
    <g>
        <g>
            <g>
                <circle cx="17" cy="17" r="17" fill="#f6d738" transform="translate(-.001)"/>
            </g>
            <g transform="translate(3.831 3.831)">
                <circle cx="14" cy="14" r="14" fill="#f3cc30" transform="translate(.169 .17)"/>
            </g>
            <g>
                <path fill="#edbd31" d="M353.02 331a14 14 0 0 1-19.12 19.476A14 14 0 1 0 353.02 331z" transform="translate(5.395 6.202) translate(-333.9 -331)"/>
            </g>
            <g>
                <path fill="#f7db5e" d="M322.036 336.874a13.928 13.928 0 0 1 24.971-8.489 13.929 13.929 0 1 0-23.121 15.427 13.864 13.864 0 0 1-1.85-6.938z" transform="translate(3.178 3.192) translate(-321 -321.4)"/>
            </g>
        </g>
    </g>
</svg>
