<svg xmlns="http://www.w3.org/2000/svg" width="36" height="36" viewBox="0 0 36 36">
    <defs>
        <clipPath id="clip-path">
            <path id="bg" d="M0 0H36V36H0z" class="cls-1"/>
        </clipPath>
        <style>
            .cls-1{fill:#666}
        </style>
    </defs>
    <g id="Mask_Group_5" clip-path="url(#clip-path)">
        <g id="calendar" transform="translate(.361 1.286)">
            <path id="Path_226" d="M4.05 33.429h27.9A4.054 4.054 0 0 0 36 29.363V7.218a4.033 4.033 0 0 0-4.05-4.041h-1.244V.6a.58.58 0 0 0-.58-.6h-6.5a.63.63 0 0 0-.638.6v2.576h-9.98V.6a.63.63 0 0 0-.638-.6h-6.5a.58.58 0 0 0-.58.6v2.576H4.05A4.033 4.033 0 0 0 0 7.218v22.145a4.054 4.054 0 0 0 4.05 4.065zm27.9-1.21H4.05a2.842 2.842 0 0 1-2.84-2.855V11.5h33.58v17.863a2.842 2.842 0 0 1-2.84 2.855zM24.2 1.21h5.3v5.143h-5.3zm-17.7 0h5.3v5.143H6.5zM4.05 4.387h1.244v2.6a.563.563 0 0 0 .58.58h6.5a.613.613 0 0 0 .638-.58v-2.6h9.983v2.6a.613.613 0 0 0 .638.58h6.5a.563.563 0 0 0 .58-.58v-2.6h1.237a2.821 2.821 0 0 1 2.84 2.831v3.068H1.21V7.218a2.821 2.821 0 0 1 2.84-2.831zm0 0" class="cls-1"/>
            <path id="Path_227" d="M24.644 19.07l-4.216-.612-1.885-3.821a.6.6 0 0 0-1.085 0l-1.885 3.821-4.216.612a.6.6 0 0 0-.335 1.032l3.051 2.974-.72 4.2a.605.605 0 0 0 .878.638L18 25.93l3.771 1.982a.605.605 0 0 0 .878-.638l-.72-4.2L24.98 20.1a.605.605 0 0 0-.335-1.032zm-3.788 3.361a.605.605 0 0 0-.174.535l.567 3.3-2.968-1.56a.6.6 0 0 0-.563 0l-2.967 1.56.567-3.3a.6.6 0 0 0-.174-.535l-2.4-2.34 3.317-.482a.606.606 0 0 0 .456-.331L18 16.272l1.484 3.006a.6.6 0 0 0 .456.331l3.318.482zm0 0" class="cls-1"/>
        </g>
    </g>
</svg>
