<svg xmlns="http://www.w3.org/2000/svg" width="36" height="36" viewBox="0 0 36 36">
    <defs>
        <clipPath id="clip-path">
            <path id="bg" d="M0 0H36V36H0z" class="cls-1"/>
        </clipPath>
        <style>
            .cls-1{fill:#666}
        </style>
    </defs>
    <g id="Mask_Group_4" clip-path="url(#clip-path)">
        <g id="cable" transform="translate(.43)">
            <path id="Path_220" d="M18 36A13.516 13.516 0 0 1 4.5 22.5V11.25a.75.75 0 0 1 1.5 0V22.5a12 12 0 0 0 24 0v-9.75a.75.75 0 0 1 1.5 0v9.75A13.516 13.516 0 0 1 18 36z" class="cls-1" transform="translate(-1.5)"/>
            <path id="Path_221" d="M18 36a10.5 10.5 0 1 1 10.5-10.5A10.512 10.512 0 0 1 18 36zm0-19.5a9 9 0 1 0 9 9 9.009 9.009 0 0 0-9-9z" class="cls-1" transform="translate(-1.5)"/>
            <path id="Path_222" d="M32.25 13.5h-3a3.754 3.754 0 0 1-3.75-3.75v-3a.75.75 0 0 1 .75-.75h9a.75.75 0 0 1 .75.75v3a3.754 3.754 0 0 1-3.75 3.75zM27 7.5v2.25A2.253 2.253 0 0 0 29.25 12h3a2.253 2.253 0 0 0 2.25-2.25V7.5z" class="cls-1" transform="translate(-1.5)"/>
            <path id="Path_223" d="M8.25 12h-6a.75.75 0 0 1-.75-.75v-6a.75.75 0 0 1 .75-.75h6a.75.75 0 0 1 .75.75v6a.75.75 0 0 1-.75.75zM3 10.5h4.5V6H3z" class="cls-1" transform="translate(-1.5)"/>
            <path id="Path_224" d="M33.75 7.5a.75.75 0 0 1-.75-.75V3h-4.5v3.75a.75.75 0 0 1-1.5 0v-4.5a.75.75 0 0 1 .75-.75h6a.75.75 0 0 1 .75.75v4.5a.75.75 0 0 1-.75.75z" class="cls-1" transform="translate(-1.5)"/>
            <path id="Path_225" d="M6.75 6A.75.75 0 0 1 6 5.25V1.5H4.5v3.75a.75.75 0 0 1-1.5 0V.75A.75.75 0 0 1 3.75 0h3a.75.75 0 0 1 .75.75v4.5a.75.75 0 0 1-.75.75z" class="cls-1" transform="translate(-1.5)"/>
        </g>
    </g>
</svg>
