<svg xmlns="http://www.w3.org/2000/svg" width="19.912" height="21.332" viewBox="0 0 19.912 21.332">
    <path d="M12.445 16.712h2.133v2.133a.356.356 0 0 0 .711 0v-2.133h2.133a.356.356 0 0 0 0-.711h-2.133v-2.133a.356.356 0 0 0-.711 0v2.133h-2.133a.356.356 0 0 0 0 .711z" data-name="Path 147"/>
    <path d="M.185 17.735a19.089 19.089 0 0 0 7.993 2.179 14.767 14.767 0 0 0 2.979-.317 4.977 4.977 0 1 0 3.777-8.217c-.1 0-.19 0-.284.008a7.861 7.861 0 0 0-4.538-3.317 4.267 4.267 0 1 0-3.866 0 7.717 7.717 0 0 0-3.867 2.434A10.468 10.468 0 0 0 0 17.423a.356.356 0 0 0 .185.312zm14.748-5.645a4.267 4.267 0 1 1-4.267 4.267 4.267 4.267 0 0 1 4.267-4.268zM4.622 4.267a3.556 3.556 0 1 1 3.556 3.556 3.556 3.556 0 0 1-3.556-3.556zm-1.708 6.705a6.915 6.915 0 0 1 10.944.523 4.975 4.975 0 0 0-3.165 7.466 13.872 13.872 0 0 1-2.516.239 18.442 18.442 0 0 1-7.465-1.993 9.693 9.693 0 0 1 2.203-6.235z" data-name="Path 148"/>
</svg>
