<svg xmlns="http://www.w3.org/2000/svg" width="19" height="19" viewBox="0 0 19 19">
    <g>
        <g>
            <g transform="translate(-243.653 -243.167) translate(243.653 243.41)">
                <circle cx="9.5" cy="9.5" r="9.5" fill="#f6d738" transform="translate(0 -.243)"/>
            </g>
            <g transform="translate(-243.653 -243.167) translate(243.653 243.41) translate(2.447 2.447)">
                <circle cx="7" cy="7" r="7" fill="#f3cc30" transform="translate(-.447 .31)"/>
            </g>
            <g>
                <path fill="#edbd31" d="M344.574 331a7.816 7.816 0 0 1-10.674 10.872A7.816 7.816 0 1 0 344.574 331z" transform="translate(-243.653 -243.167) translate(243.653 243.41) translate(2.728 2.88) translate(-333.9 -331)"/>
            </g>
            <g>
                <path fill="#f7db5e" d="M321.555 329.687a7.459 7.459 0 0 1 13.373-4.546 7.459 7.459 0 1 0-12.382 8.262 7.424 7.424 0 0 1-.991-3.716z" transform="translate(-243.653 -243.167) translate(243.653 243.41) translate(2.323 2.579) translate(-321 -321.4)"/>
            </g>
        </g>
        <g>
            <path fill="#d49a34" d="M472.466 336.9a2.759 2.759 0 0 0-2.866 2.64 2.5 2.5 0 0 0 .147.841l2.718 10.217 2.718-10.217a2.417 2.417 0 0 0 .147-.841 2.761 2.761 0 0 0-2.864-2.64zm.862 8.761l-.862 3.247-.862-3.247v-4.2a2.5 2.5 0 0 0 1.724 0zm-.862-4.78a1.343 1.343 0 1 1 1.455-1.337 1.4 1.4 0 0 1-1.455 1.336z" transform="translate(-243.653 -243.167) translate(250.05 246.475) translate(-469.6 -336.9)"/>
        </g>
    </g>
</svg>
