<?xml version="1.0" encoding="utf-8"?>
<!-- Generator: Adobe Illustrator 16.0.0, SVG Export Plug-In . SVG Version: 6.00 Build 0)  -->
<!DOCTYPE svg PUBLIC "-//W3C//DTD SVG 1.1//EN" "http://www.w3.org/Graphics/SVG/1.1/DTD/svg11.dtd">
<svg version="1.1" id="Layer_1" xmlns="http://www.w3.org/2000/svg" xmlns:xlink="http://www.w3.org/1999/xlink" x="0px" y="0px"
	 width="24px" height="24px" viewBox="0 0 24 24" enable-background="new 0 0 24 24" xml:space="preserve">
<g>
	<path fill="none" stroke="#231F20" stroke-width="0.8" stroke-miterlimit="10" d="M-33.22,8.513c0,0.55-0.361,0.731-0.803,0.403
		l-4.203-3.125c-0.441-0.328-0.441-0.865,0-1.193l4.205-3.125c0.441-0.328,0.803-0.146,0.803,0.403L-33.22,8.513z"/>
</g>
<text transform="matrix(0.733 0 0 1 -87.7529 16.5879)" font-family="'MyriadPro-Regular'" font-size="19.8297">SOS</text>
<g>
	<polygon fill="#231F20" points="-112.759,22.832 -123.167,22.832 -123.167,15.217 -112.759,20.746 	"/>
	<path fill="#231F20" d="M-124.834,13.619 M-124.834,23.287 M-123.834,22.79h10.917V3.848h-10.917v9.833l-1-0.063V3.352
		c0-0.274,0.224-0.497,0.5-0.497h11.917c0.276,0,0.5,0.222,0.5,0.497v19.935c0,0.273-0.224,0.496-0.5,0.496h-11.917
		c-0.276,0-0.5-0.223-0.5-0.496L-123.834,22.79"/>
	<path fill="#231F20" d="M-116.102,3.786h-4.548c-0.276,0-0.5-0.222-0.5-0.496V0.746c0-0.274,0.224-0.496,0.5-0.496h4.548
		c0.276,0,0.5,0.222,0.5,0.496V3.29C-115.602,3.564-115.825,3.786-116.102,3.786z M-120.149,2.793h3.548V1.243h-3.548V2.793z"/>
</g>
<g>
	<polygon fill="#231F20" points="-152.297,22.828 -155.797,22.828 -155.797,21.828 -153.297,21.828 -153.297,19.328 
		-152.297,19.328 	"/>
	<path fill="#231F20" d="M-157.431,22.828h-4.901v-1h4.901V22.828z M-163.966,21.828v1h-4.9"/>
	<polygon fill="#231F20" points="-170.5,22.828 -174,22.828 -174,19.328 -173,19.328 -173,21.828 -170.5,21.828 	"/>
	<path fill="#231F20" d="M-173,17.694h-1v-4.901h1V17.694z M-173,11.16h-1V6.259h1V11.16z"/>
	<polygon fill="#231F20" points="-173,4.625 -174,4.625 -174,1.125 -170.5,1.125 -170.5,2.125 -173,2.125 	"/>
	<path fill="#231F20" d="M-157.431,2.125h-4.9v-1h4.9V2.125z M-163.965,2.125h-4.901v-1h4.901V2.125z"/>
	<polygon fill="#231F20" points="-152.297,4.625 -153.297,4.625 -153.297,2.125 -155.797,2.125 -155.797,1.125 -152.297,1.125 	"/>
	<path fill="#231F20" d="M-152.297,17.694h-1v-4.901h1V17.694z M-152.297,11.16h-1V6.259h1V11.16z"/>
</g>
<g>
	<path fill="none" stroke="#000000" stroke-miterlimit="10" d="M-252.037,21.671"/>
</g>
<g>
	<path fill="none" stroke="#000000" stroke-miterlimit="10" d="M-250.071,19.022"/>
</g>
<polygon fill="none" stroke="#000000" stroke-linejoin="round" stroke-miterlimit="10" points="-260.519,11.629 -240.869,0.76 
	-245.064,22.817 -249.627,12.856 "/>
<g>
	<path fill="#231F20" d="M-214.418,18.405c-1.516-1.686-2.395-3.807-2.516-6.074h1.839c0.298,0,0.541-0.241,0.541-0.539
		c0-0.301-0.243-0.542-0.541-0.542h-1.838c0.125-2.327,1.057-4.442,2.519-6.072l1.297,1.297c0.106,0.105,0.244,0.158,0.382,0.158
		c0.139,0,0.277-0.053,0.383-0.158c0.211-0.211,0.211-0.554,0-0.765l-1.297-1.296c1.63-1.462,3.744-2.394,6.071-2.52v1.839
		c0,0.299,0.242,0.54,0.54,0.54c0.3,0,0.541-0.241,0.541-0.54V1.895c2.326,0.126,4.442,1.058,6.071,2.52l-1.296,1.296
		c-0.212,0.211-0.212,0.554,0,0.765c0.104,0.105,0.243,0.158,0.382,0.158s0.276-0.053,0.382-0.158l1.297-1.297
		c1.463,1.63,2.394,3.745,2.52,6.072h-1.838c-0.298,0-0.541,0.241-0.541,0.542c0,0.297,0.243,0.539,0.541,0.539h1.838
		c-0.12,2.267-1,4.388-2.515,6.076l-1.302-1.302c-0.211-0.211-0.553-0.211-0.764,0c-0.212,0.213-0.212,0.554,0,0.766l1.691,1.691
		c0.106,0.107,0.245,0.161,0.383,0.161c0.07,0,0.139-0.015,0.203-0.042c0.065-0.025,0.126-0.065,0.18-0.119
		c2.076-2.074,3.22-4.835,3.22-7.77c0-3.005-1.212-5.73-3.169-7.716c-0.017-0.021-0.032-0.04-0.051-0.059
		c-0.021-0.018-0.039-0.035-0.059-0.05c-1.986-1.958-4.711-3.169-7.715-3.169c-3.003,0-5.728,1.211-7.713,3.169
		c-0.021,0.015-0.041,0.032-0.06,0.05c-0.018,0.019-0.035,0.039-0.051,0.059c-1.956,1.986-3.168,4.711-3.168,7.716
		c0,2.933,1.144,5.695,3.219,7.768c0,0.002,0,0.002,0,0.002s0.001,0,0.001,0.002c0,0,0,0,0.001,0c0.104,0.106,0.244,0.16,0.383,0.16
		c0.138,0,0.276-0.054,0.382-0.16c0.009-0.009,0.017-0.018,0.024-0.027"/>
	<path fill="#231F20" d="M-204.554,5.592c-0.278-0.111-0.592,0.023-0.704,0.301l-1.561,3.898c-0.074-0.007-0.146-0.013-0.22-0.013
		c-0.76,0-1.447,0.422-1.794,1.1c-0.361,0.71-0.27,1.558,0.247,2.268c0.054,0.072,0.12,0.139,0.193,0.191
		c0.419,0.304,0.888,0.464,1.354,0.464c0.762,0,1.449-0.419,1.796-1.099c0.36-0.708,0.268-1.556-0.249-2.265
		c-0.052-0.073-0.118-0.14-0.191-0.193c-0.04-0.028-0.08-0.055-0.12-0.081l1.55-3.869C-204.142,6.017-204.276,5.703-204.554,5.592z
		 M-206.207,12.213c-0.16,0.313-0.478,0.508-0.831,0.508c-0.229,0-0.463-0.079-0.69-0.24c-0.26-0.371-0.311-0.775-0.138-1.112
		c0.158-0.314,0.477-0.508,0.828-0.508c0.113,0,0.226,0.02,0.338,0.057c0.003,0,0.007,0.003,0.011,0.005
		c0.013,0.005,0.023,0.009,0.036,0.013c0.103,0.04,0.205,0.095,0.308,0.166C-206.086,11.473-206.036,11.875-206.207,12.213z"/>
</g>
<path fill="#231F20" d="M-33.009,19.936c0.34,0.35,0.585,0.603,0.585,1.173l-0.001,1.173c0,0.767,0.416,1.271,1.111,1.35
	c0.016,0.001,0.026,0.001,0.041,0.001h1.841c0.19,0,0.344-0.152,0.344-0.344c0-0.189-0.153-0.343-0.344-0.343h-1.821
	c-0.336-0.045-0.485-0.249-0.485-0.664v-1.172c0-0.848-0.412-1.275-0.776-1.651c-0.377-0.393-0.704-0.729-0.702-1.572
	c0.003-4.521,0-5.214,0-5.974c0-0.38,0.309-0.689,0.688-0.689c0.381,0,0.688,0.309,0.688,0.689v2.029
	c0,0.189,0.153,0.344,0.342,0.344c0.192,0,0.345-0.154,0.345-0.344c0-0.305,0-1.929,0-2.238c0-0.38,0.309-0.688,0.689-0.688
	c0.38,0,0.688,0.309,0.688,0.688v2.238c0,0.189,0.155,0.344,0.344,0.344c0.19,0,0.344-0.154,0.344-0.344c0-0.291,0-2.226,0-2.517
	c0-0.38,0.31-0.689,0.689-0.689s0.688,0.309,0.688,0.689v2.517c0,0.189,0.169,0.344,0.36,0.344c0.188,0,0.342-0.154,0.342-0.344
	c0-6.136,0-3.773,0.001-8.827c0-0.121,0.034-0.238,0.083-0.329c0.341-0.625,1.296-0.385,1.296,0.331v9.634
	c0,0.224,0.142,0.422,0.352,0.493c0.213,0.07,0.446,0,0.581-0.177l1.646-2.164c0.003-0.003,0.005-0.004,0.008-0.007
	c0.323-0.453,0.726-0.448,0.993-0.292c0.267,0.156,0.473,0.502,0.293,0.892c-0.001,0.001-0.001,0.004-0.003,0.006l-2.034,4.657
	c-0.349,0.721-0.768,1.062-1.338,1.625c-0.874,0.866-0.254,2.601-0.67,3.024c-0.089,0.092-0.242,0.138-0.459,0.138h-1.568
	c-0.189,0-0.342,0.153-0.342,0.343c0,0.191,0.152,0.344,0.342,0.344h1.568c0.407,0,0.729-0.114,0.951-0.342
	c0.378-0.389,0.364-0.976,0.355-1.447c-0.011-0.456-0.015-1.254,0.309-1.573c0.578-0.573,1.095-1.004,1.476-1.825
	c0-0.002,0.001-0.003,0.003-0.006l2.035-4.659c0.342-0.744-0.029-1.453-0.572-1.77c-0.546-0.316-1.342-0.289-1.895,0.481
	l-1.344,1.765V8.739c1.504-0.501,2.639-1.794,2.928-3.363c0.035-0.188-0.089-0.366-0.276-0.399
	c-0.186-0.035-0.364,0.087-0.399,0.275c-0.229,1.247-1.093,2.288-2.252,2.757V6.74c0.734-0.47,1.183-1.281,1.183-2.162
	c0-1.416-1.151-2.569-2.567-2.569c-1.418,0-2.569,1.152-2.569,2.569c0,0.891,0.455,1.705,1.202,2.174v1.265
	c-1.394-0.553-2.332-1.908-2.332-3.439c0-2.04,1.657-3.699,3.699-3.699c1.727,0,3.244,1.222,3.613,2.906
	c0.04,0.185,0.224,0.303,0.409,0.262c0.186-0.041,0.303-0.224,0.261-0.409c-0.431-1.976-2.192-3.446-4.283-3.446
	c-2.42,0-4.387,1.969-4.387,4.387c0,1.905,1.228,3.582,3.02,4.167v1.498c-0.206-0.125-0.447-0.194-0.704-0.194
	c-0.482,0-0.907,0.248-1.152,0.624c-0.244-0.214-0.564-0.345-0.913-0.345c-0.463,0-0.874,0.23-1.125,0.582
	c-0.246-0.231-0.576-0.373-0.941-0.373c-0.757,0-1.374,0.617-1.374,1.375v5.974C-33.906,19.005-33.408,19.521-33.009,19.936z
	 M-27.694,5.871c-1.131-1.192-0.283-3.175,1.367-3.175c1.037,0,1.88,0.843,1.88,1.882c0,0.48-0.182,0.933-0.495,1.274V5.116
	c0-0.759-0.616-1.376-1.374-1.378l0,0c-0.76,0-1.378,0.617-1.378,1.376V5.871z"/>
<g>
	<path fill="none" stroke="#231F20" stroke-width="0.8" stroke-miterlimit="10" d="M4.974,8.513c0,0.55,0.361,0.731,0.803,0.403
		l4.203-3.125c0.441-0.328,0.441-0.865,0-1.193L5.774,1.473C5.333,1.145,4.972,1.327,4.972,1.876L4.974,8.513z"/>
</g>
<path fill="#231F20" d="M10.991,19.936c0.34,0.35,0.585,0.603,0.585,1.173l-0.001,1.173c0,0.767,0.416,1.271,1.111,1.35
	c0.016,0.001,0.026,0.001,0.041,0.001h1.841c0.19,0,0.344-0.152,0.344-0.344c0-0.189-0.153-0.343-0.344-0.343h-1.821
	c-0.336-0.045-0.485-0.249-0.485-0.664v-1.172c0-0.848-0.412-1.275-0.776-1.651c-0.377-0.393-0.704-0.729-0.702-1.572
	c0.003-4.521,0-5.214,0-5.974c0-0.38,0.309-0.689,0.688-0.689c0.381,0,0.688,0.309,0.688,0.689v2.029
	c0,0.189,0.153,0.344,0.342,0.344c0.192,0,0.345-0.154,0.345-0.344c0-0.305,0-1.929,0-2.238c0-0.38,0.309-0.688,0.689-0.688
	c0.38,0,0.688,0.309,0.688,0.688v2.238c0,0.189,0.155,0.344,0.344,0.344c0.19,0,0.344-0.154,0.344-0.344c0-0.291,0-2.226,0-2.517
	c0-0.38,0.31-0.689,0.689-0.689s0.688,0.309,0.688,0.689v2.517c0,0.189,0.169,0.344,0.36,0.344c0.188,0,0.342-0.154,0.342-0.344
	c0-6.136,0-3.773,0.001-8.827c0-0.121,0.034-0.238,0.083-0.329c0.341-0.625,1.296-0.385,1.296,0.331v9.634
	c0,0.224,0.142,0.422,0.352,0.493c0.213,0.07,0.446,0,0.581-0.177l1.646-2.164c0.003-0.003,0.005-0.004,0.008-0.007
	c0.323-0.453,0.726-0.448,0.993-0.292c0.267,0.156,0.473,0.502,0.293,0.892c-0.001,0.001-0.001,0.004-0.003,0.006l-2.034,4.657
	c-0.349,0.721-0.768,1.062-1.338,1.625c-0.874,0.866-0.254,2.601-0.67,3.024c-0.089,0.092-0.242,0.138-0.459,0.138h-1.568
	c-0.189,0-0.342,0.153-0.342,0.343c0,0.191,0.152,0.344,0.342,0.344h1.568c0.407,0,0.729-0.114,0.951-0.342
	c0.378-0.389,0.364-0.976,0.355-1.447c-0.011-0.456-0.015-1.254,0.309-1.573c0.578-0.573,1.095-1.004,1.476-1.825
	c0-0.002,0.001-0.003,0.003-0.006l2.035-4.659c0.342-0.744-0.029-1.453-0.572-1.77c-0.546-0.316-1.342-0.289-1.895,0.481
	l-1.344,1.765V8.739c1.504-0.501,2.639-1.794,2.928-3.363c0.035-0.188-0.089-0.366-0.276-0.399
	c-0.186-0.035-0.364,0.087-0.399,0.275c-0.229,1.247-1.093,2.288-2.252,2.757V6.74c0.734-0.47,1.183-1.281,1.183-2.162
	c0-1.416-1.151-2.569-2.567-2.569c-1.418,0-2.569,1.152-2.569,2.569c0,0.891,0.455,1.705,1.202,2.174v1.265
	c-1.394-0.553-2.332-1.908-2.332-3.439c0-2.04,1.657-3.699,3.699-3.699c1.727,0,3.244,1.222,3.613,2.906
	c0.04,0.185,0.224,0.303,0.409,0.262c0.186-0.041,0.303-0.224,0.261-0.409c-0.431-1.976-2.192-3.446-4.283-3.446
	c-2.42,0-4.387,1.969-4.387,4.387c0,1.905,1.228,3.582,3.02,4.167v1.498c-0.206-0.125-0.447-0.194-0.704-0.194
	c-0.482,0-0.907,0.248-1.152,0.624c-0.244-0.214-0.564-0.345-0.913-0.345c-0.463,0-0.874,0.23-1.125,0.582
	c-0.246-0.231-0.576-0.373-0.941-0.373c-0.757,0-1.374,0.617-1.374,1.375v5.974C10.094,19.005,10.592,19.521,10.991,19.936z
	 M16.306,5.871c-1.131-1.192-0.283-3.175,1.367-3.175c1.037,0,1.88,0.843,1.88,1.882c0,0.48-0.182,0.933-0.495,1.274V5.116
	c0-0.759-0.616-1.376-1.374-1.378l0,0c-0.76,0-1.378,0.617-1.378,1.376V5.871z"/>
<g>
	<path fill="none" stroke="#000000" stroke-miterlimit="10" d="M11.742,22.328"/>
</g>
<g>
	<path fill="none" stroke="#000000" stroke-miterlimit="10" d="M13.708,19.68"/>
</g>
<path fill="#ED1F24" d="M14.489,21.646l-5.718-9.09c-0.67-1.063-2.003-1.063-2.672,0l-5.719,9.091
	c-0.339,0.54-0.397,1.098-0.158,1.529c0.238,0.431,0.741,0.678,1.379,0.678H13.27c0.638,0,1.142-0.247,1.379-0.678
	C14.888,22.745,14.829,22.188,14.489,21.646z M8.421,22.077H6.45v-2.034h1.971V22.077z M8.421,19.404H6.45V14.85h1.971V19.404z"/>
<path fill="#ED1F24" d="M-29.511,21.646l-5.718-9.09c-0.67-1.063-2.003-1.063-2.672,0l-5.719,9.091
	c-0.339,0.54-0.397,1.098-0.158,1.529c0.238,0.431,0.741,0.678,1.379,0.678h11.668c0.638,0,1.142-0.247,1.379-0.678
	C-29.112,22.745-29.171,22.188-29.511,21.646z M-35.579,22.077h-1.971v-2.034h1.971V22.077z M-35.579,19.404h-1.971V14.85h1.971
	V19.404z"/>
<path fill="#ED1F24" d="M-73.511,21.646l-5.718-9.09c-0.67-1.063-2.003-1.063-2.672,0l-5.719,9.091
	c-0.339,0.54-0.397,1.098-0.158,1.529c0.238,0.431,0.741,0.678,1.379,0.678h11.668c0.638,0,1.142-0.247,1.379-0.678
	C-73.112,22.745-73.171,22.188-73.511,21.646z M-79.579,22.077h-1.971v-2.034h1.971V22.077z M-79.579,19.404h-1.971V14.85h1.971
	V19.404z"/>
<path fill="#ED1F24" d="M-117.511,21.646l-5.718-9.09c-0.67-1.063-2.003-1.063-2.672,0l-5.719,9.091
	c-0.339,0.54-0.397,1.098-0.158,1.529c0.238,0.431,0.741,0.678,1.379,0.678h11.668c0.638,0,1.142-0.247,1.379-0.678
	C-117.112,22.745-117.171,22.188-117.511,21.646z M-123.579,22.077h-1.971v-2.034h1.971V22.077z M-123.579,19.404h-1.971V14.85
	h1.971V19.404z"/>
<path fill="#ED1F24" d="M-161.511,21.646l-5.718-9.09c-0.67-1.063-2.003-1.063-2.672,0l-5.719,9.091
	c-0.339,0.54-0.397,1.098-0.158,1.529c0.238,0.431,0.741,0.678,1.379,0.678h11.668c0.638,0,1.142-0.247,1.379-0.678
	C-161.112,22.745-161.171,22.188-161.511,21.646z M-167.579,22.077h-1.971v-2.034h1.971V22.077z M-167.579,19.404h-1.971V14.85
	h1.971V19.404z"/>
<path fill="#ED1F24" d="M-205.511,21.646l-5.718-9.09c-0.67-1.063-2.003-1.063-2.672,0l-5.719,9.091
	c-0.339,0.54-0.397,1.098-0.158,1.529c0.238,0.431,0.741,0.678,1.379,0.678h11.668c0.638,0,1.142-0.247,1.379-0.678
	C-205.112,22.745-205.171,22.188-205.511,21.646z M-211.579,22.077h-1.971v-2.034h1.971V22.077z M-211.579,19.404h-1.971V14.85
	h1.971V19.404z"/>
<path fill="#ED1F24" d="M-249.51,21.646l-5.718-9.09c-0.67-1.063-2.003-1.063-2.672,0l-5.719,9.091
	c-0.339,0.54-0.397,1.098-0.158,1.529c0.238,0.431,0.741,0.678,1.379,0.678h11.668c0.638,0,1.142-0.247,1.379-0.678
	C-249.111,22.745-249.17,22.188-249.51,21.646z M-255.578,22.077h-1.971v-2.034h1.971V22.077z M-255.578,19.404h-1.971V14.85h1.971
	V19.404z"/>
</svg>
