<?xml version="1.0" encoding="utf-8"?>
<!-- Generator: Adobe Illustrator 16.0.0, SVG Export Plug-In . SVG Version: 6.00 Build 0)  -->
<!DOCTYPE svg PUBLIC "-//W3C//DTD SVG 1.1//EN" "http://www.w3.org/Graphics/SVG/1.1/DTD/svg11.dtd">
<svg version="1.1" id="Layer_1" xmlns="http://www.w3.org/2000/svg" xmlns:xlink="http://www.w3.org/1999/xlink" x="0px" y="0px"
	 width="24px" height="24px" viewBox="0 0 24 24" enable-background="new 0 0 24 24" xml:space="preserve">
<g>
	<path fill="none" stroke="#231F20" stroke-width="0.8" stroke-miterlimit="10" d="M54.779,8.513c0,0.55-0.36,0.731-0.803,0.403
		l-4.203-3.125c-0.44-0.328-0.44-0.865,0-1.193l4.205-3.125c0.441-0.328,0.804-0.146,0.804,0.403L54.779,8.513z"/>
</g>
<g enable-background="new    ">
	<path d="M1.154,15.346c0.552,0.417,1.359,0.764,2.209,0.764c1.26,0,1.997-0.815,1.997-1.995c0-1.093-0.51-1.717-1.798-2.324
		c-1.558-0.677-2.521-1.666-2.521-3.313c0-1.821,1.232-3.174,3.087-3.174c0.977,0,1.685,0.277,2.11,0.572l-0.34,1.231
		C5.586,6.898,4.949,6.551,4.085,6.551c-1.303,0-1.798,0.954-1.798,1.752c0,1.093,0.581,1.63,1.897,2.255
		c1.614,0.764,2.436,1.718,2.436,3.435c0,1.804-1.09,3.365-3.342,3.365c-0.92,0-1.926-0.33-2.436-0.746L1.154,15.346z"/>
	<path d="M16.462,11.217c0,4.025-1.997,6.159-4.432,6.159c-2.521,0-4.291-2.394-4.291-5.933c0-3.712,1.883-6.141,4.432-6.141
		C14.777,5.302,16.462,7.748,16.462,11.217z M9.056,11.408c0,2.498,1.104,4.735,3.044,4.735c1.954,0,3.059-2.202,3.059-4.856
		c0-2.325-0.991-4.753-3.044-4.753C10.076,6.534,9.056,8.841,9.056,11.408z"/>
	<path d="M17.894,15.346c0.552,0.417,1.359,0.764,2.209,0.764c1.261,0,1.997-0.815,1.997-1.995c0-1.093-0.51-1.717-1.799-2.324
		c-1.558-0.677-2.521-1.666-2.521-3.313c0-1.821,1.231-3.174,3.087-3.174c0.977,0,1.686,0.277,2.109,0.572l-0.34,1.231
		c-0.311-0.208-0.948-0.555-1.813-0.555c-1.303,0-1.798,0.954-1.798,1.752c0,1.093,0.581,1.63,1.897,2.255
		c1.614,0.764,2.436,1.718,2.436,3.435c0,1.804-1.09,3.365-3.342,3.365c-0.92,0-1.926-0.33-2.436-0.746L17.894,15.346z"/>
</g>
<g>
	<polygon fill="#231F20" points="-24.759,22.832 -35.167,22.832 -35.167,15.217 -24.759,20.746 	"/>
	<path fill="#231F20" d="M-35.834,22.79h10.917V3.848h-10.917v9.833l-1-0.063V3.352c0-0.274,0.224-0.497,0.5-0.497h11.917
		c0.276,0,0.5,0.222,0.5,0.497v19.935c0,0.273-0.224,0.496-0.5,0.496h-11.917c-0.276,0-0.5-0.223-0.5-0.496L-35.834,22.79"/>
	<path fill="#231F20" d="M-28.102,3.786h-4.548c-0.276,0-0.5-0.222-0.5-0.496V0.746c0-0.274,0.224-0.496,0.5-0.496h4.548
		c0.276,0,0.5,0.222,0.5,0.496V3.29C-27.602,3.564-27.825,3.786-28.102,3.786z M-32.149,2.793h3.548v-1.55h-3.548V2.793z"/>
</g>
<g>
	<polygon fill="#231F20" points="-64.297,22.828 -67.797,22.828 -67.797,21.828 -65.297,21.828 -65.297,19.328 -64.297,19.328 	"/>
	<path fill="#231F20" d="M-69.431,22.828h-4.901v-1h4.901V22.828z M-75.966,21.828v1h-4.9"/>
	<polygon fill="#231F20" points="-82.5,22.828 -86,22.828 -86,19.328 -85,19.328 -85,21.828 -82.5,21.828 	"/>
	<path fill="#231F20" d="M-85,17.693h-1v-4.9h1V17.693z M-85,11.16h-1V6.259h1V11.16z"/>
	<polygon fill="#231F20" points="-85,4.625 -86,4.625 -86,1.125 -82.5,1.125 -82.5,2.125 -85,2.125 	"/>
	<path fill="#231F20" d="M-69.431,2.125h-4.9v-1h4.9V2.125z M-75.965,2.125h-4.901v-1h4.901V2.125z"/>
	<polygon fill="#231F20" points="-64.297,4.625 -65.297,4.625 -65.297,2.125 -67.797,2.125 -67.797,1.125 -64.297,1.125 	"/>
	<path fill="#231F20" d="M-64.297,17.693h-1v-4.9h1V17.693z M-64.297,11.16h-1V6.259h1V11.16z"/>
</g>
<g>
	<path fill="none" stroke="#000000" stroke-miterlimit="10" d="M-164.037,21.671"/>
</g>
<g>
	<path fill="none" stroke="#000000" stroke-miterlimit="10" d="M-162.071,19.021"/>
</g>
<polygon fill="none" stroke="#000000" stroke-linejoin="round" stroke-miterlimit="10" points="-172.519,11.629 -152.869,0.76 
	-157.064,22.816 -161.627,12.855 "/>
<g>
	<path fill="#231F20" d="M-126.418,18.405c-1.516-1.687-2.395-3.808-2.516-6.074h1.839c0.298,0,0.541-0.241,0.541-0.539
		c0-0.301-0.243-0.542-0.541-0.542h-1.838c0.125-2.327,1.057-4.442,2.519-6.072l1.297,1.297c0.106,0.105,0.244,0.158,0.382,0.158
		c0.139,0,0.277-0.053,0.383-0.158c0.211-0.211,0.211-0.554,0-0.765l-1.297-1.296c1.63-1.462,3.744-2.394,6.071-2.52v1.839
		c0,0.299,0.242,0.54,0.54,0.54c0.3,0,0.541-0.241,0.541-0.54V1.895c2.326,0.126,4.442,1.058,6.071,2.52l-1.296,1.296
		c-0.212,0.211-0.212,0.554,0,0.765c0.104,0.105,0.243,0.158,0.382,0.158c0.139,0,0.276-0.053,0.382-0.158l1.297-1.297
		c1.463,1.63,2.394,3.745,2.52,6.072h-1.838c-0.298,0-0.541,0.241-0.541,0.542c0,0.297,0.243,0.539,0.541,0.539h1.838
		c-0.12,2.268-1,4.388-2.515,6.076l-1.302-1.303c-0.211-0.211-0.553-0.211-0.764,0c-0.212,0.213-0.212,0.555,0,0.767l1.691,1.69
		c0.106,0.107,0.245,0.162,0.383,0.162c0.07,0,0.139-0.016,0.203-0.043c0.065-0.024,0.126-0.064,0.18-0.119
		c2.076-2.073,3.22-4.834,3.22-7.77c0-3.005-1.212-5.73-3.169-7.716c-0.017-0.021-0.032-0.04-0.051-0.059
		c-0.021-0.018-0.039-0.035-0.059-0.05c-1.986-1.958-4.711-3.169-7.715-3.169c-3.003,0-5.728,1.211-7.713,3.169
		c-0.021,0.015-0.041,0.032-0.06,0.05c-0.018,0.019-0.035,0.039-0.051,0.059c-1.956,1.986-3.168,4.711-3.168,7.716
		c0,2.934,1.144,5.695,3.219,7.768c0,0.002,0,0.002,0,0.002s0.001,0,0.001,0.002c0,0,0,0,0.001,0c0.104,0.106,0.244,0.16,0.383,0.16
		c0.138,0,0.276-0.054,0.382-0.16c0.009-0.008,0.017-0.018,0.024-0.026"/>
	<path fill="#231F20" d="M-116.554,5.592c-0.278-0.111-0.592,0.023-0.704,0.301l-1.561,3.898c-0.074-0.007-0.146-0.013-0.22-0.013
		c-0.76,0-1.447,0.422-1.794,1.1c-0.361,0.71-0.27,1.558,0.247,2.269c0.054,0.071,0.12,0.139,0.193,0.19
		c0.419,0.304,0.888,0.464,1.354,0.464c0.762,0,1.449-0.419,1.796-1.099c0.36-0.708,0.268-1.556-0.249-2.265
		c-0.052-0.073-0.118-0.14-0.191-0.193c-0.04-0.028-0.08-0.055-0.12-0.081l1.55-3.869C-116.142,6.017-116.276,5.703-116.554,5.592z
		 M-118.207,12.213c-0.16,0.313-0.478,0.508-0.831,0.508c-0.229,0-0.463-0.078-0.69-0.24c-0.26-0.371-0.311-0.775-0.138-1.112
		c0.158-0.314,0.477-0.508,0.828-0.508c0.113,0,0.226,0.02,0.338,0.057c0.003,0,0.007,0.003,0.011,0.005
		c0.013,0.005,0.023,0.009,0.036,0.013c0.103,0.04,0.205,0.095,0.308,0.166C-118.086,11.473-118.036,11.875-118.207,12.213z"/>
</g>
<path fill="#231F20" d="M54.991,19.936c0.34,0.351,0.585,0.604,0.585,1.174l-0.001,1.173c0,0.767,0.416,1.271,1.11,1.35
	c0.017,0.001,0.026,0.001,0.041,0.001h1.842c0.189,0,0.344-0.152,0.344-0.344c0-0.189-0.153-0.344-0.344-0.344h-1.821
	c-0.336-0.045-0.485-0.248-0.485-0.663v-1.173c0-0.848-0.412-1.274-0.775-1.65c-0.377-0.393-0.704-0.729-0.702-1.572
	c0.003-4.521,0-5.214,0-5.974c0-0.38,0.309-0.689,0.688-0.689c0.381,0,0.688,0.309,0.688,0.689v2.028
	c0,0.189,0.152,0.345,0.342,0.345c0.191,0,0.346-0.154,0.346-0.345c0-0.305,0-1.928,0-2.237c0-0.38,0.309-0.688,0.688-0.688
	s0.688,0.309,0.688,0.688v2.237c0,0.189,0.154,0.345,0.344,0.345s0.344-0.154,0.344-0.345c0-0.291,0-2.226,0-2.517
	c0-0.38,0.311-0.689,0.689-0.689s0.688,0.309,0.688,0.689v2.517c0,0.189,0.169,0.345,0.359,0.345c0.188,0,0.343-0.154,0.343-0.345
	c0-6.135,0-3.772,0.001-8.826c0-0.121,0.033-0.238,0.083-0.329c0.341-0.625,1.296-0.385,1.296,0.331v9.634
	c0,0.224,0.143,0.422,0.352,0.493c0.213,0.07,0.446,0,0.582-0.178l1.646-2.164c0.003-0.002,0.005-0.004,0.008-0.006
	c0.323-0.454,0.726-0.448,0.993-0.293c0.267,0.156,0.473,0.502,0.293,0.893c-0.001,0.001-0.001,0.004-0.003,0.006l-2.034,4.657
	c-0.35,0.721-0.768,1.062-1.338,1.625c-0.874,0.866-0.254,2.601-0.67,3.024c-0.09,0.092-0.242,0.137-0.459,0.137h-1.568
	c-0.189,0-0.342,0.154-0.342,0.344c0,0.191,0.152,0.344,0.342,0.344h1.568c0.406,0,0.729-0.113,0.951-0.342
	c0.377-0.389,0.363-0.977,0.354-1.447c-0.011-0.455-0.015-1.254,0.31-1.572c0.578-0.573,1.095-1.004,1.476-1.826
	c0-0.002,0.001-0.002,0.003-0.006l2.035-4.658c0.342-0.744-0.029-1.453-0.572-1.771c-0.546-0.316-1.342-0.289-1.895,0.481
	l-1.344,1.765V8.739c1.504-0.501,2.639-1.794,2.928-3.363c0.035-0.188-0.09-0.366-0.276-0.399c-0.187-0.035-0.364,0.087-0.399,0.275
	c-0.229,1.247-1.093,2.288-2.252,2.757V6.74c0.734-0.47,1.184-1.281,1.184-2.162c0-1.416-1.151-2.569-2.567-2.569
	c-1.418,0-2.569,1.152-2.569,2.569c0,0.891,0.455,1.705,1.203,2.174v1.265c-1.395-0.553-2.332-1.908-2.332-3.439
	c0-2.04,1.656-3.699,3.698-3.699c1.728,0,3.244,1.222,3.613,2.906c0.04,0.185,0.224,0.303,0.409,0.262S66,3.823,65.958,3.638
	c-0.431-1.976-2.192-3.446-4.283-3.446c-2.42,0-4.387,1.969-4.387,4.387c0,1.905,1.228,3.582,3.021,4.167v1.498
	c-0.207-0.125-0.447-0.194-0.705-0.194c-0.481,0-0.906,0.248-1.151,0.624c-0.244-0.214-0.563-0.345-0.913-0.345
	c-0.463,0-0.874,0.23-1.125,0.582c-0.246-0.231-0.576-0.373-0.941-0.373c-0.757,0-1.373,0.617-1.373,1.375v5.974
	C54.094,19.005,54.592,19.521,54.991,19.936z M60.307,5.871c-1.132-1.192-0.283-3.175,1.366-3.175c1.037,0,1.88,0.843,1.88,1.882
	c0,0.48-0.182,0.933-0.494,1.274V5.116c0-0.759-0.617-1.376-1.375-1.378l0,0c-0.76,0-1.377,0.617-1.377,1.376V5.871z"/>
<g>
	<path fill="none" stroke="#231F20" stroke-width="0.8" stroke-miterlimit="10" d="M92.975,8.513c0,0.55,0.36,0.731,0.803,0.403
		l4.203-3.125c0.44-0.328,0.44-0.865,0-1.193l-4.205-3.125c-0.441-0.328-0.803-0.146-0.803,0.403L92.975,8.513z"/>
</g>
<path fill="#231F20" d="M98.991,19.936c0.34,0.351,0.585,0.604,0.585,1.174l-0.001,1.173c0,0.767,0.416,1.271,1.11,1.35
	c0.017,0.001,0.026,0.001,0.041,0.001h1.842c0.189,0,0.344-0.152,0.344-0.344c0-0.189-0.153-0.344-0.344-0.344h-1.821
	c-0.336-0.045-0.485-0.248-0.485-0.663v-1.173c0-0.848-0.412-1.274-0.775-1.65c-0.377-0.393-0.704-0.729-0.702-1.572
	c0.003-4.521,0-5.214,0-5.974c0-0.38,0.309-0.689,0.688-0.689c0.381,0,0.688,0.309,0.688,0.689v2.028
	c0,0.189,0.152,0.345,0.342,0.345c0.191,0,0.346-0.154,0.346-0.345c0-0.305,0-1.928,0-2.237c0-0.38,0.309-0.688,0.688-0.688
	s0.688,0.309,0.688,0.688v2.237c0,0.189,0.154,0.345,0.344,0.345s0.344-0.154,0.344-0.345c0-0.291,0-2.226,0-2.517
	c0-0.38,0.311-0.689,0.689-0.689s0.688,0.309,0.688,0.689v2.517c0,0.189,0.169,0.345,0.359,0.345c0.188,0,0.343-0.154,0.343-0.345
	c0-6.135,0-3.772,0.001-8.826c0-0.121,0.033-0.238,0.083-0.329c0.341-0.625,1.296-0.385,1.296,0.331v9.634
	c0,0.224,0.143,0.422,0.352,0.493c0.213,0.07,0.446,0,0.582-0.178l1.646-2.164c0.003-0.002,0.005-0.004,0.008-0.006
	c0.323-0.454,0.726-0.448,0.993-0.293c0.268,0.156,0.473,0.502,0.293,0.893c-0.001,0.001-0.001,0.004-0.003,0.006l-2.034,4.657
	c-0.35,0.721-0.768,1.062-1.338,1.625c-0.874,0.866-0.254,2.601-0.67,3.024c-0.09,0.092-0.242,0.137-0.459,0.137h-1.568
	c-0.189,0-0.342,0.154-0.342,0.344c0,0.191,0.152,0.344,0.342,0.344h1.568c0.406,0,0.729-0.113,0.951-0.342
	c0.377-0.389,0.363-0.977,0.354-1.447c-0.011-0.455-0.015-1.254,0.31-1.572c0.578-0.573,1.095-1.004,1.476-1.826
	c0-0.002,0.001-0.002,0.003-0.006l2.035-4.658c0.342-0.744-0.029-1.453-0.572-1.771c-0.546-0.316-1.342-0.289-1.895,0.481
	l-1.344,1.765V8.739c1.504-0.501,2.639-1.794,2.928-3.363c0.035-0.188-0.09-0.366-0.276-0.399c-0.187-0.035-0.364,0.087-0.399,0.275
	c-0.229,1.247-1.092,2.288-2.252,2.757V6.74c0.734-0.47,1.184-1.281,1.184-2.162c0-1.416-1.151-2.569-2.567-2.569
	c-1.418,0-2.569,1.152-2.569,2.569c0,0.891,0.455,1.705,1.203,2.174v1.265c-1.395-0.553-2.332-1.908-2.332-3.439
	c0-2.04,1.656-3.699,3.698-3.699c1.728,0,3.244,1.222,3.613,2.906c0.04,0.185,0.224,0.303,0.409,0.262s0.303-0.224,0.261-0.409
	c-0.431-1.976-2.192-3.446-4.283-3.446c-2.42,0-4.387,1.969-4.387,4.387c0,1.905,1.228,3.582,3.021,4.167v1.498
	c-0.207-0.125-0.447-0.194-0.705-0.194c-0.481,0-0.906,0.248-1.151,0.624c-0.244-0.214-0.563-0.345-0.913-0.345
	c-0.463,0-0.874,0.23-1.125,0.582c-0.246-0.231-0.576-0.373-0.941-0.373c-0.757,0-1.373,0.617-1.373,1.375v5.974
	C98.094,19.005,98.592,19.521,98.991,19.936z M104.307,5.871c-1.132-1.192-0.283-3.175,1.366-3.175c1.037,0,1.88,0.843,1.88,1.882
	c0,0.48-0.182,0.933-0.494,1.274V5.116c0-0.759-0.617-1.376-1.375-1.378l0,0c-0.76,0-1.377,0.617-1.377,1.376V5.871z"/>
<g>
	<path fill="none" stroke="#000000" stroke-miterlimit="10" d="M99.742,22.328"/>
</g>
<g>
	<path fill="none" stroke="#000000" stroke-miterlimit="10" d="M101.708,19.68"/>
</g>
<path fill="#ED1F24" d="M102.488,21.646l-5.717-9.09c-0.67-1.063-2.004-1.063-2.672,0l-5.72,9.09
	c-0.339,0.541-0.397,1.099-0.157,1.529c0.237,0.432,0.74,0.678,1.379,0.678h11.668c0.638,0,1.142-0.246,1.379-0.678
	C102.889,22.745,102.829,22.188,102.488,21.646z M96.421,22.077H94.45v-2.034h1.971V22.077z M96.421,19.404H94.45V14.85h1.971
	V19.404z"/>
<path fill="#ED1F24" d="M58.488,21.646l-5.717-9.09c-0.67-1.063-2.004-1.063-2.672,0l-5.72,9.09
	c-0.339,0.541-0.397,1.099-0.157,1.529c0.237,0.432,0.74,0.678,1.379,0.678H57.27c0.639,0,1.143-0.246,1.379-0.678
	C58.889,22.745,58.829,22.188,58.488,21.646z M52.421,22.077H50.45v-2.034h1.971V22.077z M52.421,19.404H50.45V14.85h1.971V19.404z"
	/>
<path fill="#ED1F24" d="M14.488,21.646l-5.717-9.09c-0.67-1.063-2.003-1.063-2.672,0l-5.719,9.09
	c-0.339,0.541-0.397,1.099-0.158,1.529c0.238,0.432,0.741,0.678,1.379,0.678H13.27c0.639,0,1.143-0.246,1.379-0.678
	C14.889,22.745,14.829,22.188,14.488,21.646z M8.421,22.077H6.45v-2.034h1.971V22.077z M8.421,19.404H6.45V14.85h1.971V19.404z"/>
<path fill="#ED1F24" d="M-29.511,21.646l-5.718-9.09c-0.67-1.063-2.003-1.063-2.672,0l-5.719,9.09
	c-0.339,0.541-0.397,1.099-0.158,1.529c0.238,0.432,0.741,0.678,1.379,0.678h11.668c0.638,0,1.142-0.246,1.379-0.678
	C-29.112,22.745-29.171,22.188-29.511,21.646z M-35.579,22.077h-1.971v-2.034h1.971V22.077z M-35.579,19.404h-1.971V14.85h1.971
	V19.404z"/>
<path fill="#ED1F24" d="M-73.511,21.646l-5.718-9.09c-0.67-1.063-2.003-1.063-2.672,0l-5.719,9.09
	c-0.339,0.541-0.397,1.099-0.158,1.529c0.238,0.432,0.741,0.678,1.379,0.678h11.668c0.638,0,1.142-0.246,1.379-0.678
	C-73.112,22.745-73.171,22.188-73.511,21.646z M-79.579,22.077h-1.971v-2.034h1.971V22.077z M-79.579,19.404h-1.971V14.85h1.971
	V19.404z"/>
<path fill="#ED1F24" d="M-117.511,21.646l-5.718-9.09c-0.67-1.063-2.003-1.063-2.672,0l-5.719,9.09
	c-0.339,0.541-0.397,1.099-0.158,1.529c0.238,0.432,0.741,0.678,1.379,0.678h11.668c0.638,0,1.142-0.246,1.379-0.678
	C-117.112,22.745-117.171,22.188-117.511,21.646z M-123.579,22.077h-1.971v-2.034h1.971V22.077z M-123.579,19.404h-1.971V14.85
	h1.971V19.404z"/>
<path fill="#ED1F24" d="M-161.51,21.646l-5.718-9.09c-0.67-1.063-2.003-1.063-2.672,0l-5.719,9.09
	c-0.339,0.541-0.397,1.099-0.158,1.529c0.238,0.432,0.741,0.678,1.379,0.678h11.668c0.638,0,1.142-0.246,1.379-0.678
	C-161.111,22.745-161.17,22.188-161.51,21.646z M-167.578,22.077h-1.971v-2.034h1.971V22.077z M-167.578,19.404h-1.971V14.85h1.971
	V19.404z"/>
</svg>
