<svg xmlns="http://www.w3.org/2000/svg" width="15" height="27" viewBox="0 0 15 27">
    <path fill="#fff" d="M17.7 16.35c-3.4-.885-4.5-1.8-4.5-3.225 0-1.635 1.515-2.775 4.05-2.775 2.13 0 3.195.81 3.585 2.1a1.388 1.388 0 0 0 1.305 1.05h.45a1.422 1.422 0 0 0 1.35-1.9 6 6 0 0 0-4.44-3.81V6.75a2.25 2.25 0 0 0-4.5 0v.99c-2.91.63-5.25 2.52-5.25 5.415 0 3.465 2.865 5.19 7.05 6.2 3.75.9 4.5 2.22 4.5 3.615 0 1.035-.735 2.685-4.05 2.685-2.475 0-3.75-.885-4.245-2.145a1.476 1.476 0 0 0-1.35-1h-.42A1.431 1.431 0 0 0 9.9 24.45a6.748 6.748 0 0 0 5.1 3.8v1a2.25 2.25 0 0 0 4.5 0v-.975c2.925-.555 5.25-2.25 5.25-5.325 0-4.26-3.65-5.715-7.05-6.6z" transform="translate(-9.75 -4.5)"/>
</svg>
