<svg xmlns="http://www.w3.org/2000/svg" id="money" width="31.365" height="26.784" viewBox="0 0 31.365 26.784">
    <defs>
        <style>
            .cls-3{fill:#79a73a}.cls-4{fill:#aac16b}
        </style>
    </defs>
    <path id="Path_212" fill="#6f9935" d="M26.916 38.71v7.049l4.448-1.691-6.164-15.48L0 38.71" transform="translate(0 -28.588)"/>
    <path id="Path_213" fill="#658b30" d="M42.916 146.784v-7.844H17.91l-1.91.767v.515h25.635v7.049z" transform="translate(-14.718 -130.1)"/>
    <path id="Path_214" d="M0 154.94h26.916v16.66H0z" class="cls-3" transform="translate(0 -144.818)"/>
    <path id="Path_215" d="M32 189.958a4.5 4.5 0 0 0 3.018-3.018h15.753a4.5 4.5 0 0 0 3.018 3.018v5.5a4.5 4.5 0 0 0-3.018 3.018H35.018A4.5 4.5 0 0 0 32 195.457z" class="cls-4" transform="translate(-29.437 -174.255)"/>
    <circle id="Ellipse_63" cx="3.204" cy="3.204" r="3.204" class="cls-3" transform="translate(10.254 15.249)"/>
    <path id="Path_216" d="M107.423 88.708L105.9 84.8l-.069-.172a4.5 4.5 0 0 1-3.921-1.686l-.172.069L88 88.708z" class="cls-4" transform="translate(-80.951 -78.586)"/>
    <path id="Path_217" fill="#89b140" d="M91.091 138.94L88 140.222h19.423l-.5-1.282z" transform="translate(-80.951 -130.1)"/>
    <g id="Group_74" transform="translate(5.768 17.812)">
        <circle id="Ellipse_64" cx=".641" cy=".641" r=".641" class="cls-3"/>
        <circle id="Ellipse_65" cx=".641" cy=".641" r=".641" class="cls-3" transform="translate(14.099)"/>
    </g>
</svg>
