<svg xmlns="http://www.w3.org/2000/svg" width="36" height="36" viewBox="0 0 36 36">
    <defs>
        <clipPath id="clip-path">
            <path id="bg" d="M0 0H36V36H0z" class="cls-1"/>
        </clipPath>
        <style>
            .cls-1{fill:#666}
        </style>
    </defs>
    <g id="Mask_Group_6" clip-path="url(#clip-path)">
        <g id="smartphone" transform="translate(6.641)">
            <g id="Group_80">
                <g id="Group_79">
                    <path id="Path_228" d="M26.4 0H9.6a3 3 0 0 0-3 3v30a3 3 0 0 0 3 3h16.8a3 3 0 0 0 3-3V3a3 3 0 0 0-3-3zm1.8 33a1.8 1.8 0 0 1-1.8 1.8H9.6A1.8 1.8 0 0 1 7.8 33v-3h20.4zm0-4.2H7.8v-24h20.4zm0-25.2H7.8V3a1.8 1.8 0 0 1 1.8-1.8h16.8A1.8 1.8 0 0 1 28.2 3z" class="cls-1" transform="translate(-6.6)"/>
                </g>
            </g>
            <g id="Group_82" transform="translate(9.6 30.6)">
                <g id="Group_81">
                    <path id="Path_229" d="M18 30.6a1.8 1.8 0 1 0 1.8 1.8 1.8 1.8 0 0 0-1.8-1.8zm0 2.4a.6.6 0 1 1 .6-.6.6.6 0 0 1-.6.6z" class="cls-1" transform="translate(-16.2 -30.6)"/>
                </g>
            </g>
            <g id="Group_84" transform="translate(10.2 1.8)">
                <g id="Group_83">
                    <path id="Path_230" d="M18.6 1.8h-1.2a.6.6 0 1 0 0 1.2h1.2a.6.6 0 1 0 0-1.2z" class="cls-1" transform="translate(-16.8 -1.8)"/>
                </g>
            </g>
        </g>
    </g>
</svg>
