<svg xmlns="http://www.w3.org/2000/svg" width="24" height="24" viewBox="0 0 24 24">
    <path fill="#fff" d="M4.5 15.167h10.667V4.5H4.5zm2.667-8H12.5V12.5H7.167zM4.5 28.5h10.667V17.833H4.5zm2.667-8H12.5v5.333H7.167zm10.667-16v10.667H28.5V4.5zm8 8H20.5V7.167h5.333zm0 13.333H28.5V28.5h-2.667zm-8-8H20.5V20.5h-2.667zM20.5 20.5h2.667v2.667H20.5zm-2.667 2.667H20.5v2.667h-2.667zm2.667 2.666h2.667V28.5H20.5zm2.667-2.667h2.667v2.667h-2.667zm0-5.333h2.667V20.5h-2.667zm2.666 2.667H28.5v2.667h-2.667z" transform="translate(-4.5 -4.5)"/>
</svg>
