<svg xmlns="http://www.w3.org/2000/svg" width="20" height="18.947" viewBox="0 0 20 18.947">
    <defs>
        <style>
            .cls-1{fill:#666}
        </style>
    </defs>
    <g id="accountbalancewallet_outline" transform="translate(-4.5 -4.5)">
        <path id="Path_205" d="M23.447 9.005v-2.4A2.111 2.111 0 0 0 21.342 4.5H6.605A2.105 2.105 0 0 0 4.5 6.605v14.737a2.105 2.105 0 0 0 2.105 2.105h14.737a2.111 2.111 0 0 0 2.105-2.105v-2.4a2.105 2.105 0 0 0 1.053-1.81v-6.316a2.105 2.105 0 0 0-1.053-1.811zm-1.053 1.811v6.316h-7.368v-6.316zM6.605 21.342V6.605h14.737v2.106h-6.316a2.111 2.111 0 0 0-2.105 2.105v6.316a2.111 2.111 0 0 0 2.105 2.105h6.316v2.105z" class="cls-1"/>
        <path id="Path_206" d="M24.543 17.146a1.4 1.4 0 1 1-1.4-1.4 1.4 1.4 0 0 1 1.4 1.4z" class="cls-1" transform="translate(-4.882 -3.173)"/>
    </g>
</svg>
